<?xml version="1.0" standalone="no"?>
<!DOCTYPE svg PUBLIC "-//W3C//DTD SVG 20010904//EN"
 "http://www.w3.org/TR/2001/REC-SVG-20010904/DTD/svg10.dtd">
<svg version="1.0" xmlns="http://www.w3.org/2000/svg"
 width="715.000000pt" height="432.000000pt" viewBox="0 0 715.000000 432.000000"
 preserveAspectRatio="xMidYMid meet">

<g transform="translate(0.000000,432.000000) scale(0.100000,-0.100000)"
fill="#000000" stroke="none">
<path d="M1892 2809 c-39 -12 -113 -84 -132 -128 -15 -38 -24 -39 -39 -3 -7
16 -32 51 -56 78 -36 41 -44 46 -50 31 -5 -12 4 -29 29 -57 64 -71 116 -202
116 -293 0 -35 -2 -38 -22 -31 -13 3 -45 18 -73 32 -35 18 -72 27 -125 30 -56
4 -85 11 -120 31 -79 47 -133 66 -181 66 -49 0 -63 -10 -175 -123 -80 -82
-109 -173 -80 -259 13 -39 34 -67 99 -130 45 -43 109 -100 143 -126 52 -39 63
-53 74 -94 33 -119 112 -233 186 -268 28 -13 51 -16 98 -11 207 20 185 22 263
-18 54 -27 85 -37 121 -38 116 0 215 102 268 277 34 112 18 394 -32 547 -27
82 -119 148 -208 148 -16 0 -64 -16 -108 -36 -44 -20 -82 -34 -84 -31 -3 3 -9
31 -14 63 -5 33 -12 77 -16 98 -6 34 -5 39 10 33 43 -17 174 -18 246 -3 135
29 210 86 210 161 0 58 -19 65 -176 64 -76 0 -154 -5 -172 -10z m280 -43 c12
-18 9 -71 -5 -90 -29 -39 -276 -73 -364 -50 -29 8 -29 12 5 63 56 83 109 103
252 95 60 -4 108 -11 112 -18z m-829 -266 c29 -11 62 -27 73 -34 18 -14 18
-16 -19 -46 -20 -17 -49 -51 -63 -76 -14 -24 -30 -44 -34 -44 -24 0 -110 140
-110 181 0 43 66 51 153 19z m-183 -58 c1 -15 7 -38 14 -51 15 -27 12 -42 -16
-83 -19 -28 -24 -58 -9 -58 6 0 20 18 32 40 13 22 25 40 28 40 3 -1 21 -14 40
-30 l34 -29 -17 -41 c-20 -49 -20 -50 -1 -50 8 0 21 16 29 35 8 19 17 35 20
35 21 0 76 -37 76 -50 0 -10 -13 -43 -28 -74 -16 -30 -27 -58 -24 -61 16 -15
32 2 57 58 15 34 29 63 30 65 5 6 85 -42 85 -51 0 -4 -11 -35 -25 -68 -24 -57
-26 -87 -3 -73 9 6 25 39 49 102 9 22 10 23 36 7 68 -40 68 -39 39 -88 -29
-48 -32 -67 -13 -67 6 0 23 20 36 45 13 25 29 45 35 45 6 0 29 -14 50 -32 34
-28 38 -35 33 -68 -5 -42 -95 -183 -126 -200 -37 -19 -69 -10 -152 47 -197
133 -391 299 -430 368 -55 96 -33 205 58 285 49 43 63 44 63 2z m508 -43 c52
-28 63 -30 127 -26 44 3 94 15 135 32 112 47 161 36 223 -51 53 -75 90 -358
68 -515 -28 -190 -115 -298 -245 -301 -49 -1 -68 5 -149 46 -103 53 -80 53
-217 0 -94 -36 -172 13 -234 147 -60 129 -60 129 66 36 144 -107 155 -112 182
-98 21 12 77 93 111 161 10 19 29 49 42 67 13 17 25 44 26 60 2 26 -9 35 -125
113 -70 47 -175 112 -233 145 -58 33 -105 62 -105 65 0 16 64 100 88 116 77
50 150 51 240 3z"/>
<path d="M3427 2764 c-4 -4 -7 -97 -7 -206 0 -109 -2 -198 -4 -198 -2 0 -30
16 -61 35 -73 43 -105 50 -230 49 -78 -1 -113 -6 -157 -23 -107 -42 -187 -126
-239 -251 -20 -47 -23 -73 -24 -180 0 -139 15 -196 77 -292 116 -183 412 -235
600 -106 35 24 36 23 40 -14 l3 -33 115 0 115 0 0 610 0 610 -111 3 c-60 1
-113 -1 -117 -4z m-156 -536 c164 -49 217 -299 91 -431 -78 -82 -219 -94 -318
-28 -158 107 -149 360 15 444 61 30 143 36 212 15z"/>
<path d="M4310 2441 c-37 -12 -113 -51 -132 -69 -19 -16 -23 -11 -30 33 -3 19
-11 20 -118 20 l-115 0 0 -440 0 -440 115 0 115 0 5 290 c6 323 7 329 76 381
27 21 50 29 94 32 72 5 121 -16 152 -67 22 -35 23 -46 28 -336 l5 -300 120 0
120 0 3 270 c3 293 -8 400 -48 478 -53 104 -133 148 -275 153 -49 2 -101 0
-115 -5z"/>
<path d="M5294 2441 c-71 -12 -169 -67 -218 -122 -61 -68 -95 -140 -112 -243
-40 -232 57 -433 252 -523 52 -24 71 -27 164 -27 114 -1 180 15 245 60 47 31
53 30 57 -8 l3 -33 115 0 115 0 0 440 0 440 -117 3 -118 3 0 -36 c0 -40 -17
-46 -45 -15 -44 48 -229 82 -341 61z m266 -229 c179 -88 173 -377 -8 -460
-138 -63 -290 -5 -348 133 -18 45 -18 163 1 208 21 52 73 107 120 128 63 29
166 25 235 -9z"/>
</g>
</svg>
